<?xml version="1.0" encoding="UTF-8"?>
<svg version="1.1" xmlns="http://www.w3.org/2000/svg" width="32" height="32">
<path d="M0 0 C1.32 0 2.64 0 4 0 C4 0.99 4 1.98 4 3 C4.99 3 5.98 3 7 3 C7 3.66 7 4.32 7 5 C7.66 5 8.32 5 9 5 C9 5.66 9 6.32 9 7 C9.66 7 10.32 7 11 7 C11 7.99 11 8.98 11 10 C11.66 10 12.32 10 13 10 C13 10.99 13 11.98 13 13 C13.66 13 14.32 13 15 13 C15 15.31 15 17.62 15 20 C14.34 20 13.68 20 13 20 C13 20.66 13 21.32 13 22 C10.69 22 8.38 22 6 22 C6 22.66 6 23.32 6 24 C6.66 24 7.32 24 8 24 C8 25.32 8 26.64 8 28 C4.04 28 0.08 28 -4 28 C-4 26.68 -4 25.36 -4 24 C-3.34 24 -2.68 24 -2 24 C-2 23.34 -2 22.68 -2 22 C-4.31 22 -6.62 22 -9 22 C-9 21.34 -9 20.68 -9 20 C-9.66 20 -10.32 20 -11 20 C-11 17.69 -11 15.38 -11 13 C-10.34 13 -9.68 13 -9 13 C-9 12.01 -9 11.02 -9 10 C-8.34 10 -7.68 10 -7 10 C-7 9.01 -7 8.02 -7 7 C-6.34 7 -5.68 7 -5 7 C-5 6.34 -5 5.68 -5 5 C-4.34 5 -3.68 5 -3 5 C-3 4.34 -3 3.68 -3 3 C-2.01 3 -1.02 3 0 3 C0 2.01 0 1.02 0 0 Z M-1 7 C-1 7.66 -1 8.32 -1 9 C-1.66 9 -2.32 9 -3 9 C-3 9.99 -3 10.98 -3 12 C-3.66 12 -4.32 12 -5 12 C-5 12.99 -5 13.98 -5 15 C-5.66 15 -6.32 15 -7 15 C-7 15.99 -7 16.98 -7 18 C-6.01 18 -5.02 18 -4 18 C-4 17.34 -4 16.68 -4 16 C-0.04 16 3.92 16 8 16 C8 16.66 8 17.32 8 18 C8.99 18 9.98 18 11 18 C11 17.01 11 16.02 11 15 C10.34 15 9.68 15 9 15 C9 14.01 9 13.02 9 12 C8.34 12 7.68 12 7 12 C7 11.01 7 10.02 7 9 C6.34 9 5.68 9 5 9 C5 8.34 5 7.68 5 7 C3.02 7 1.04 7 -1 7 Z " fill="#080808" transform="translate(14,2)"/>
<path d="M0 0 C0.33 0 0.66 0 1 0 C1 2.31 1 4.62 1 7 C0.34 7 -0.32 7 -1 7 C-1 7.66 -1 8.32 -1 9 C-3.31 9 -5.62 9 -8 9 C-8 9.66 -8 10.32 -8 11 C-7.34 11 -6.68 11 -6 11 C-6.33 12.32 -6.66 13.64 -7 15 C-7 14.01 -7 13.02 -7 12 C-7.66 12 -8.32 12 -9 12 C-8.125 6.25 -8.125 6.25 -7 4 C-8.32 4 -9.64 4 -11 4 C-11 4.66 -11 5.32 -11 6 C-11.66 6 -12.32 6 -13 6 C-13 5.34 -13 4.68 -13 4 C-14.32 4 -15.64 4 -17 4 C-17 4.66 -17 5.32 -17 6 C-18.65 6 -20.3 6 -22 6 C-21.67 4.68 -21.34 3.36 -21 2 C-21 2.99 -21 3.98 -21 5 C-20.01 5 -19.02 5 -18 5 C-18 4.34 -18 3.68 -18 3 C-14.04 3 -10.08 3 -6 3 C-6 3.66 -6 4.32 -6 5 C-5.01 5 -4.02 5 -3 5 C-2.67 4.01 -2.34 3.02 -2 2 C-2 3.32 -2 4.64 -2 6 C-1.34 6 -0.68 6 0 6 C0 4.02 0 2.04 0 0 Z " fill="#101010" transform="translate(28,15)"/>
<path d="M0 0 C2 2 2 2 2 6 C2.66 6 3.32 6 4 6 C4 6.99 4 7.98 4 9 C0.7 9 -2.6 9 -6 9 C-6 8.01 -6 7.02 -6 6 C-5.34 6 -4.68 6 -4 6 C-3.67 4.68 -3.34 3.36 -3 2 C-2.67 3.32 -2.34 4.64 -2 6 C-1.34 6 -0.68 6 0 6 C0 4.02 0 2.04 0 0 Z " fill="#020202" transform="translate(17,21)"/>
<path d="M0 0 C1.32 0.33 2.64 0.66 4 1 C3.01 1 2.02 1 1 1 C1 1.99 1 2.98 1 4 C0.01 4 -0.98 4 -2 4 C-1.67 5.65 -1.34 7.3 -1 9 C-1.66 9 -2.32 9 -3 9 C-3.33 9.99 -3.66 10.98 -4 12 C-4 10.68 -4 9.36 -4 8 C-4.99 7.67 -5.98 7.34 -7 7 C-6.34 7 -5.68 7 -5 7 C-5 6.34 -5 5.68 -5 5 C-4.34 5 -3.68 5 -3 5 C-3 4.34 -3 3.68 -3 3 C-2.01 3 -1.02 3 0 3 C0 2.01 0 1.02 0 0 Z " fill="#0F0F0F" transform="translate(14,2)"/>
</svg>
